<svg aria-hidden="true" style="position: absolute; width: 0; height: 0; overflow: hidden;" version="1.1" xmlns="http://www.w3.org/2000/svg" xmlns:xlink="http://www.w3.org/1999/xlink">
<defs>
<symbol id="add-icon" viewBox="0 0 34 32">
<path fill="none" stroke="#fff" style="stroke: var(--color1, #fff)" stroke-linejoin="round" stroke-linecap="round" stroke-miterlimit="4" stroke-width="2.6667" d="M16.889 1.778v28.444M2.667 16h28.444"></path>
</symbol>
<symbol id="arrow-lng" viewBox="0 0 55 32">
<path stroke-linejoin="round" stroke-linecap="round" stroke-miterlimit="4" stroke-width="6.8571" d="M4.571 4.571l22.857 22.857 22.857-22.857"></path>
</symbol>
<symbol id="category-icon" fill="none" viewBox="0 0 30 32" >
<path stroke-linejoin="round" stroke-linecap="round" stroke-miterlimit="4" stroke-width="2.5263" d="M1.684 1.684l8.421 13.474v10.105l10.105 5.053v-15.158l8.421-13.474h-26.947z"></path>
</symbol>
<symbol id="search-icon" viewBox="0 0 32 32">
<path fill="#7b61ff" style="fill: var(--color2, #7b61ff)" d="M29.423 31.209c0.493 0.493 1.293 0.493 1.786 0s0.493-1.293 0-1.786l-1.786 1.786zM25.684 14.316c0 6.279-5.090 11.368-11.368 11.368v2.526c7.674 0 13.895-6.221 13.895-13.895h-2.526zM14.316 25.684c-6.279 0-11.368-5.090-11.368-11.368h-2.526c0 7.674 6.221 13.895 13.895 13.895v-2.526zM2.947 14.316c0-6.279 5.090-11.368 11.368-11.368v-2.526c-7.674 0-13.895 6.221-13.895 13.895h2.526zM14.316 2.947c6.279 0 11.368 5.090 11.368 11.368h2.526c0-7.674-6.221-13.895-13.895-13.895v2.526zM31.209 29.423l-7.053-7.053-1.786 1.786 7.053 7.053 1.786-1.786z"></path>
</symbol>
<symbol id="sort-icon" viewBox="0 0 32 32">
<path fill="#7b61ff" stroke-linejoin="miter" stroke-linecap="round" stroke-miterlimit="4" stroke-width="2" d="M18.667 6.667c0-1.473-1.194-2.667-2.667-2.667s-2.667 1.194-2.667 2.667M18.667 6.667c0 1.473-1.194 2.667-2.667 2.667s-2.667-1.194-2.667-2.667M18.667 6.667h8M13.333 6.667h-8M21.333 16c0 1.473 1.194 2.667 2.667 2.667s2.667-1.194 2.667-2.667c0-1.473-1.194-2.667-2.667-2.667s-2.667 1.194-2.667 2.667zM21.333 16h-16M10.667 25.333c0-1.473-1.194-2.667-2.667-2.667s-2.667 1.194-2.667 2.667c0 1.473 1.194 2.667 2.667 2.667s2.667-1.194 2.667-2.667zM10.667 25.333h16"></path>
</symbol>
<symbol id="left-icon" viewBox="0 0 19 32">
<path fill="#bcbcbc" style="fill: var(--color1, #bcbcbc)" d="M0.587 17.92c-0.375-0.375-0.586-0.883-0.587-1.413v-1.013c0.006-0.529 0.216-1.035 0.587-1.413l13.707-13.68c0.25-0.252 0.591-0.394 0.947-0.394s0.696 0.142 0.947 0.394l1.893 1.893c0.251 0.246 0.392 0.582 0.392 0.933s-0.141 0.688-0.392 0.933l-11.867 11.84 11.867 11.84c0.252 0.25 0.394 0.591 0.394 0.947s-0.142 0.696-0.394 0.947l-1.893 1.867c-0.25 0.252-0.591 0.394-0.947 0.394s-0.696-0.142-0.947-0.394l-13.707-13.68z"></path>
</symbol>
<symbol id="right-icon" viewBox="0 0 19 32">
<path fill="#7b61ff" style="fill: var(--color2, #7b61ff)" d="M18.080 17.92c0.375-0.375 0.586-0.883 0.587-1.413v-1.013c-0.006-0.529-0.216-1.035-0.587-1.413l-13.707-13.68c-0.25-0.252-0.591-0.394-0.947-0.394s-0.696 0.142-0.947 0.394l-1.893 1.893c-0.251 0.246-0.392 0.582-0.392 0.933s0.141 0.688 0.392 0.933l11.867 11.84-11.867 11.84c-0.252 0.25-0.394 0.591-0.394 0.947s0.142 0.696 0.394 0.947l1.893 1.867c0.25 0.252 0.591 0.394 0.947 0.394s0.696-0.142 0.947-0.394l13.707-13.68z"></path>
</symbol>
</defs>
</svg>
